<svg width="256" height="60" viewBox="0 0 256 60" fill="none" xmlns="http://www.w3.org/2000/svg">
<path opacity="0.08" d="M44 7.5H20C13.3726 7.5 8 12.5368 8 18.75V41.25C8 47.4632 13.3726 52.5 20 52.5H44C50.6274 52.5 56 47.4632 56 41.25V18.75C56 12.5368 50.6274 7.5 44 7.5Z" fill="white"/>
<path opacity="0.8" d="M24 17.8125C24 16.2592 22.6569 15 21 15C19.3431 15 18 16.2592 18 17.8125V42.1875C18 43.7408 19.3431 45 21 45C22.6569 45 24 43.7408 24 42.1875V17.8125Z" fill="white"/>
<path opacity="0.8" d="M46 17.8125C46 16.2592 44.6569 15 43 15C41.3431 15 40 16.2592 40 17.8125V42.1875C40 43.7408 41.3431 45 43 45C44.6569 45 46 43.7408 46 42.1875V17.8125Z" fill="white"/>
<path d="M45.1421 20.7193C46.3136 19.6209 46.3136 17.8401 45.1421 16.7418C43.9705 15.6434 42.071 15.6434 40.8994 16.7418L16.8578 39.2808C15.6862 40.3792 15.6862 42.1599 16.8578 43.2583C18.0294 44.3566 19.9289 44.3566 21.1004 43.2583L45.1421 20.7193Z" fill="white"/>
<path d="M21.1005 16.7417C19.929 15.6434 18.0295 15.6434 16.8579 16.7417C15.6863 17.8401 15.6863 19.6209 16.8579 20.7192L40.8995 43.2582C42.0711 44.3566 43.9706 44.3566 45.1422 43.2582C46.3137 42.1599 46.3137 40.3791 45.1422 39.2808L21.1005 16.7417Z" fill="white"/>
<path d="M75.8778 14.1364H81.1875L84.5384 27.8182H84.777L92.642 14.1364H97.9517L94.571 34.5H90.3949L92.6023 21.2457H92.4233L84.9858 34.4006H82.1321L79.0696 21.196H78.9006L76.6733 34.5H72.4972L75.8778 14.1364ZM102.354 34.7884C101.386 34.7884 100.548 34.6193 99.8384 34.2812C99.1358 33.9366 98.6187 33.4261 98.2873 32.75C97.9558 32.0739 97.873 31.2353 98.0387 30.2344C98.1845 29.3859 98.4596 28.6766 98.864 28.1065C99.275 27.5298 99.7754 27.0658 100.365 26.7145C100.955 26.3632 101.608 26.0947 102.324 25.9091C103.047 25.7235 103.792 25.5975 104.561 25.5312C105.45 25.4384 106.172 25.349 106.729 25.2628C107.292 25.1766 107.713 25.054 107.992 24.8949C108.27 24.7292 108.439 24.4839 108.499 24.1591V24.0994C108.598 23.4763 108.482 22.9924 108.151 22.6477C107.826 22.2964 107.306 22.1207 106.59 22.1207C105.834 22.1207 105.191 22.2865 104.661 22.6179C104.137 22.9493 103.763 23.3703 103.537 23.8807L99.6793 23.5625C100.024 22.6345 100.544 21.8324 101.24 21.1562C101.943 20.4735 102.788 19.9498 103.776 19.5852C104.764 19.214 105.871 19.0284 107.097 19.0284C107.945 19.0284 108.738 19.1278 109.473 19.3267C110.216 19.5256 110.855 19.8338 111.392 20.2514C111.936 20.669 112.327 21.206 112.566 21.8622C112.811 22.5118 112.861 23.2907 112.715 24.1989L110.995 34.5H106.978L107.336 32.3821H107.216C106.891 32.8594 106.494 33.2803 106.023 33.6449C105.552 34.0028 105.012 34.2846 104.402 34.4901C103.792 34.6889 103.11 34.7884 102.354 34.7884ZM104.054 31.8651C104.671 31.8651 105.238 31.7424 105.755 31.4972C106.278 31.2453 106.709 30.9072 107.047 30.483C107.392 30.0587 107.611 29.5781 107.703 29.0412L107.962 27.4205C107.829 27.5066 107.637 27.5829 107.385 27.6491C107.14 27.7154 106.872 27.7784 106.58 27.8381C106.295 27.8911 106.007 27.9408 105.715 27.9872C105.423 28.027 105.161 28.0668 104.929 28.1065C104.419 28.1795 103.962 28.2955 103.557 28.4545C103.153 28.6136 102.825 28.8291 102.573 29.1009C102.321 29.366 102.165 29.6974 102.105 30.0952C102.013 30.6719 102.149 31.1127 102.513 31.4176C102.884 31.7159 103.398 31.8651 104.054 31.8651ZM124.95 19.2273L124.423 22.4091H115.216L115.752 19.2273H124.95ZM118.437 15.5682H122.673L120.306 29.8068C120.24 30.1979 120.25 30.5028 120.336 30.7216C120.422 30.9337 120.565 31.0829 120.764 31.169C120.969 31.2552 121.215 31.2983 121.5 31.2983C121.699 31.2983 121.901 31.2817 122.106 31.2486C122.312 31.2088 122.467 31.179 122.574 31.1591L122.733 34.3111C122.494 34.384 122.172 34.4635 121.768 34.5497C121.37 34.6359 120.9 34.6889 120.356 34.7088C119.322 34.7486 118.447 34.6127 117.731 34.3011C117.015 33.983 116.502 33.4957 116.19 32.8395C115.878 32.1832 115.812 31.358 115.991 30.3636L118.437 15.5682ZM132.522 14.1364L135.465 21.0767H135.624L140.914 14.1364H145.915L138.03 24.3182L142.674 34.5H137.811L134.789 27.5497H134.63L129.3 34.5H124.279L132.363 24.3182L127.779 14.1364H132.522Z" fill="white"/>
</svg>
